<?xml version="1.0" encoding="UTF-8"?>
<svg version="1.1" xmlns="http://www.w3.org/2000/svg" width="445" height="350">
<path d="M0 0 C146.85 0 293.7 0 445 0 C445 115.5 445 231 445 350 C298.15 350 151.3 350 0 350 C0 234.5 0 119 0 0 Z " fill="#FEFEFE" transform="translate(0,0)"/>
<path d="M0 0 C0.89847656 0.19335938 1.79695312 0.38671875 2.72265625 0.5859375 C27.90443625 7.06005122 48.71041347 25.463363 62.3125 47 C72.03433876 64.31439872 75.99423368 82.2257969 75 102 C75.82177734 102.185625 75.82177734 102.185625 76.66015625 102.375 C89.29495419 105.6621019 100.23827679 112.47592384 110 121 C110.66 121.51691406 111.32 122.03382813 112 122.56640625 C130.1962368 137.2041048 141.47455582 160.37120847 144.69091797 183.14453125 C146.24032114 197.45876467 145.91245769 212.10226987 142 226 C141.61714844 227.47146484 141.61714844 227.47146484 141.2265625 228.97265625 C137.51627537 241.61826791 130.70298011 254.11888722 122 264 C121.34773438 264.7940625 120.69546875 265.588125 120.0234375 266.40625 C114.09918319 273.38609871 107.42683799 278.73436271 100 284 C99.21238281 284.56589844 98.42476563 285.13179688 97.61328125 285.71484375 C75.01829082 300.58100674 45.58891136 303.16386123 19.63427734 297.97729492 C2.7605584 294.14554794 -12.24678378 285.59383292 -25 274 C-28.89239042 275.35028057 -31.56198707 277.08427327 -34.6875 279.75 C-55.8395503 296.91284783 -83.00783959 302.42185418 -109.74267578 299.72314453 C-137.23256797 296.21665385 -160.93027284 281.74534808 -178 260 C-189.37692015 244.31963614 -197.59202097 224.55385195 -198 205 C-198.03867188 204.00097656 -198.07734375 203.00195312 -198.1171875 201.97265625 C-198.30182098 193.51028855 -197.40916551 185.33756261 -196 177 C-195.84015625 176.02675781 -195.6803125 175.05351562 -195.515625 174.05078125 C-192.6145598 159.99629645 -185.17598584 145.9263184 -176 135 C-175.27941406 134.14148438 -174.55882812 133.28296875 -173.81640625 132.3984375 C-161.96617187 118.80250135 -147.29716126 107.68591806 -130 102 C-129.34 102 -128.68 102 -128 102 C-128.02320313 101.45214844 -128.04640625 100.90429688 -128.0703125 100.33984375 C-128.25027345 92.43441642 -127.2795269 84.79199073 -126 77 C-125.84015625 76.02289063 -125.6803125 75.04578125 -125.515625 74.0390625 C-122.6029676 59.98745858 -115.17656455 45.9270075 -106 35 C-105.27941406 34.14148437 -104.55882812 33.28296875 -103.81640625 32.3984375 C-77.30133617 1.97733456 -38.97914703 -8.6800598 0 0 Z " fill="#0F6038" transform="translate(240,18)"/>
<path d="M0 0 C1.52970685 1.30214716 3.05116432 2.61407462 4.5625 3.9375 C5.25730469 4.50082031 5.95210937 5.06414062 6.66796875 5.64453125 C20.98205647 17.46680486 30.11606617 34.44537003 35.5625 51.9375 C35.9028125 53.00742188 36.243125 54.07734375 36.59375 55.1796875 C42.8782254 78.97922859 38.30485149 105.21165072 26.64453125 126.5859375 C12.17144898 150.90996001 -9.91680613 167.91619477 -37.4375 174.9375 C-38.25734375 175.16308594 -39.0771875 175.38867188 -39.921875 175.62109375 C-64.72086779 181.34697584 -91.19074444 174.79462978 -112.66992188 162.05078125 C-117.25857548 159.16069003 -121.79348695 155.9678845 -125.4375 151.9375 C-125.4375 147.31765411 -124.92557328 146.92696283 -122 143.625 C-103.14817611 120.86934709 -97.46822163 95.05402382 -99.4375 65.9375 C-100.75416606 53.21631138 -104.34152443 42.12419513 -110.4375 30.9375 C-110.99566406 29.88046875 -111.55382812 28.8234375 -112.12890625 27.734375 C-116.16100136 20.43731192 -120.98042322 14.22365647 -126.4375 7.9375 C-122.54048753 -2.00660078 -107.66016337 -8.07631993 -98.46777344 -12.19433594 C-66.15443412 -26.01182447 -27.88637812 -22.03579037 0 0 Z " fill="#494CFE" transform="translate(343.4375,138.0625)"/>
<path d="M0 0 C0.14695312 1.26972656 0.29390625 2.53945312 0.4453125 3.84765625 C1.86488364 15.11295934 4.04633392 24.70040921 9 35 C9.45101074 35.94915283 9.45101074 35.94915283 9.91113281 36.91748047 C14.23268157 45.8949034 19.24486694 53.60539651 26 61 C26.69738281 61.77859375 27.39476562 62.5571875 28.11328125 63.359375 C39.33614238 75.25930088 53.91838529 83.0568487 69 89 C69.08040527 89.71542969 69.16081055 90.43085938 69.24365234 91.16796875 C69.61523651 94.44596656 69.99505349 97.72296135 70.375 101 C70.50132812 102.12535156 70.62765625 103.25070313 70.7578125 104.41015625 C73.10615522 124.48848648 80.68507632 143.496489 94.1171875 158.73046875 C95.80966556 160.77057197 96.94467223 162.58385484 98 165 C84.37271331 176.58319369 70.23022444 184.14170612 53 189 C51.70835937 189.36931641 51.70835937 189.36931641 50.390625 189.74609375 C25.64965381 195.45857914 -0.87664789 188.7845575 -22.28076172 176.08251953 C-26.91128886 173.16690503 -30.97516204 169.68793075 -35 166 C-35.91394531 165.17886719 -36.82789062 164.35773438 -37.76953125 163.51171875 C-48.55239562 153.33209155 -56.7834884 140.90037808 -62 127 C-62.24121582 126.36803711 -62.48243164 125.73607422 -62.73095703 125.08496094 C-69.76078358 105.84202559 -70.22459501 80.2357638 -63 61 C-62.55269531 59.78828125 -62.10539062 58.5765625 -61.64453125 57.328125 C-52.01363796 33.26380183 -34.36769623 15.09217951 -11.4375 3.4375 C-10.75872803 3.09066162 -10.07995605 2.74382324 -9.38061523 2.38647461 C-5.93328932 0.69933818 -3.91277523 0 0 0 Z " fill="#49A549" transform="translate(113,124)"/>
<path d="M0 0 C1.52970685 1.30214716 3.05116432 2.61407462 4.5625 3.9375 C5.25730469 4.50082031 5.95210937 5.06414063 6.66796875 5.64453125 C24.21474328 20.13674155 35.6790419 43.53524864 38.5625 65.9375 C38.84294218 70.94167705 38.75185188 75.93019482 38.5625 80.9375 C37.45777344 80.7209375 36.35304688 80.504375 35.21484375 80.28125 C6.48070429 74.99018123 -20.98923995 77.68853548 -45.83203125 94.0546875 C-49.47177783 96.68490916 -52.8809599 99.55973148 -56.24609375 102.53125 C-58.4375 103.9375 -58.4375 103.9375 -60.51953125 103.84375 C-62.70792419 102.8097232 -63.98442574 101.65649084 -65.6875 99.9375 C-83.56902231 83.72403014 -108.36610419 77.76531524 -131.875 77.75 C-132.86048828 77.73775391 -133.84597656 77.72550781 -134.86132812 77.71289062 C-140.32385451 77.70203073 -145.21417008 78.15212559 -150.50805664 79.4987793 C-152.84957165 80.03119768 -155.04562052 80.0918148 -157.4375 79.9375 C-158.65948908 52.51063393 -148.58799542 30.11834341 -130.38671875 9.62890625 C-96.73364633 -25.8698557 -38.46104158 -30.39187971 0 0 Z " fill="#FD4C49" transform="translate(273.4375,38.0625)"/>
<path d="M0 0 C-3.50164744 28.25890918 -14.91820688 54.62147697 -37.546875 72.95703125 C-47.39698184 80.58154778 -57.88449066 86.8028517 -70 90 C-70 93.63 -70 97.26 -70 101 C-70.33 101 -70.66 101 -71 101 C-71.02578125 99.78828125 -71.0515625 98.5765625 -71.078125 97.328125 C-71.63082169 78.92035773 -74.12389078 62.28850487 -83 46 C-83.55816406 44.94296875 -84.11632812 43.8859375 -84.69140625 42.796875 C-88.72350136 35.49981192 -93.54292322 29.28615647 -99 23 C-95.10298753 13.05589922 -80.22266337 6.98618007 -71.03027344 2.86816406 C-47.63835865 -7.13443923 -24.11358215 -7.11954287 0 0 Z " fill="#4913CC" transform="translate(316,123)"/>
<path d="M0 0 C1.26457031 0.29003906 1.26457031 0.29003906 2.5546875 0.5859375 C16.13888373 4.10776615 28.23653232 11.18404182 39 20 C40.32822639 21.00677328 41.65957657 22.00952395 43 23 C41.54189138 26.25496975 39.68972832 28.67294662 37.375 31.375 C32.42417442 37.49178088 28.60224919 44.03871568 25 51 C24.45214844 52.05574219 23.90429688 53.11148438 23.33984375 54.19921875 C18.27565751 64.93632973 16.23244122 76.40628848 14 88 C8.57802655 87.45524913 4.53325851 85.54113141 -0.1875 83 C-0.93854004 82.59700684 -1.68958008 82.19401367 -2.46337891 81.77880859 C-8.95375726 78.19718963 -14.55970068 74.04752809 -20 69 C-20.91136719 68.18015625 -21.82273438 67.3603125 -22.76171875 66.515625 C-38.92043012 51.28091247 -50.30688198 29.86004887 -52.30859375 7.5625 C-52.3125 4.8125 -52.3125 4.8125 -52 1 C-50.33546212 0.51348985 -48.66822271 0.03622085 -47 -0.4375 C-46.071875 -0.70433594 -45.14375 -0.97117187 -44.1875 -1.24609375 C-29.57571408 -4.70206763 -14.43195926 -3.65063745 0 0 Z " fill="#49700F" transform="translate(168,121)"/>
<path d="M0 0 C0.89847656 0.19335938 1.79695312 0.38671875 2.72265625 0.5859375 C27.90443625 7.06005122 48.71041347 25.463363 62.3125 47 C72.03433876 64.31439872 75.99423368 82.2257969 75 102 C75.82177734 102.185625 75.82177734 102.185625 76.66015625 102.375 C89.29495419 105.6621019 100.23827679 112.47592384 110 121 C110.66 121.51691406 111.32 122.03382813 112 122.56640625 C130.1962368 137.2041048 141.47455582 160.37120847 144.69091797 183.14453125 C146.24032114 197.45876467 145.91245769 212.10226987 142 226 C141.61714844 227.47146484 141.61714844 227.47146484 141.2265625 228.97265625 C137.51627537 241.61826791 130.70298011 254.11888722 122 264 C121.34773438 264.7940625 120.69546875 265.588125 120.0234375 266.40625 C114.09918319 273.38609871 107.42683799 278.73436271 100 284 C99.21238281 284.56589844 98.42476563 285.13179688 97.61328125 285.71484375 C75.01829082 300.58100674 45.58891136 303.16386123 19.63427734 297.97729492 C2.7605584 294.14554794 -12.24678378 285.59383292 -25 274 C-28.89239042 275.35028057 -31.56198707 277.08427327 -34.6875 279.75 C-55.8395503 296.91284783 -83.00783959 302.42185418 -109.74267578 299.72314453 C-137.23256797 296.21665385 -160.93027284 281.74534808 -178 260 C-189.37692015 244.31963614 -197.59202097 224.55385195 -198 205 C-198.03867188 204.00097656 -198.07734375 203.00195312 -198.1171875 201.97265625 C-198.30182098 193.51028855 -197.40916551 185.33756261 -196 177 C-195.84015625 176.02675781 -195.6803125 175.05351562 -195.515625 174.05078125 C-192.6145598 159.99629645 -185.17598584 145.9263184 -176 135 C-175.27941406 134.14148438 -174.55882812 133.28296875 -173.81640625 132.3984375 C-161.96617187 118.80250135 -147.29716126 107.68591806 -130 102 C-129.34 102 -128.68 102 -128 102 C-128.02320313 101.45214844 -128.04640625 100.90429688 -128.0703125 100.33984375 C-128.25027345 92.43441642 -127.2795269 84.79199073 -126 77 C-125.84015625 76.02289063 -125.6803125 75.04578125 -125.515625 74.0390625 C-122.6029676 59.98745858 -115.17656455 45.9270075 -106 35 C-105.27941406 34.14148437 -104.55882812 33.28296875 -103.81640625 32.3984375 C-77.30133617 1.97733456 -38.97914703 -8.6800598 0 0 Z M-93 26 C-93.77988281 26.69738281 -94.55976563 27.39476563 -95.36328125 28.11328125 C-109.79361528 41.74608386 -123.30766121 64.55509253 -124.07421875 84.97729492 C-124.09817837 87.25670321 -124.08733819 89.53311803 -124.0625 91.8125 C-124.05798828 92.60076172 -124.05347656 93.38902344 -124.04882812 94.20117188 C-124.03711312 96.13414761 -124.01917998 98.06708393 -124 100 C-122.22880197 99.85866501 -120.45804713 99.71176792 -118.6875 99.5625 C-117.70136719 99.48128906 -116.71523437 99.40007812 -115.69921875 99.31640625 C-112.90624401 99.08187441 -112.90624401 99.08187441 -110 98 C-96.47879321 97.00156674 -83.17591895 97.92178313 -70 101 C-69.10796875 101.19335938 -68.2159375 101.38671875 -67.296875 101.5859375 C-54.89167312 104.74885321 -38.69253441 112.56414912 -30.0625 122 C-29.381875 122.66 -28.70125 123.32 -28 124 C-24.04180309 123.74016213 -21.50939599 121.26148338 -18.5 118.875 C-7.46633748 110.40534406 3.78835678 105.10452523 17 101 C18.04542969 100.65710938 19.09085938 100.31421875 20.16796875 99.9609375 C36.85327861 95.24408636 55.27037821 97.72044754 72 101 C73.30476085 76.10081386 64.2422123 52.04044132 48.03686523 33.12280273 C30.40883544 13.55559398 4.93106026 1.09434385 -21.41796875 -0.28515625 C-48.32733066 -1.10510102 -72.98843107 7.97407512 -93 26 Z M-163 126 C-163.77730469 126.69609375 -164.55460937 127.3921875 -165.35546875 128.109375 C-180.52005097 142.41262983 -192.88213645 164.96419142 -194.19287109 186.11181641 C-194.91405619 217.35005813 -189.62901603 243.73031094 -167.2434082 267.17431641 C-153.38619948 281.19455111 -136.95527887 290.02977295 -118 295 C-117.11570312 295.24621094 -116.23140625 295.49242187 -115.3203125 295.74609375 C-90.80517381 301.42452044 -64.579234 294.93611657 -43.3828125 282.26171875 C-22.36667015 268.63339998 -8.63838412 248.57960243 -1 225 C-0.45859375 223.33130859 -0.45859375 223.33130859 0.09375 221.62890625 C4.54740352 204.78337418 3.46568713 185.46032165 -2 169 C-2.30550781 168.05471436 -2.30550781 168.05471436 -2.6171875 167.09033203 C-11.18365989 141.38430494 -29.40199937 121.70405606 -53.43359375 109.68359375 C-90.27104303 92.29373544 -132.91813086 98.55689131 -163 126 Z M-23 126 C-21.76012844 129.51497568 -20.47240144 131.84219387 -17.875 134.5 C0.69855536 155.12012175 5.37124496 181.34444541 4.17138672 208.14697266 C2.78751695 231.1838702 -7.36705632 252.13287655 -23 269 C-19.31842455 278.44866762 -4.7691882 284.98334132 4.01171875 289.13183594 C9.82816104 291.67153004 15.87198092 293.39318396 22 295 C23.32644531 295.36931641 23.32644531 295.36931641 24.6796875 295.74609375 C49.19482619 301.42452044 75.420766 294.93611657 96.6171875 282.26171875 C115.72670602 269.86978661 128.9637619 252.10160584 137 231 C137.31710937 230.17757812 137.63421875 229.35515625 137.9609375 228.5078125 C144.65596419 209.88105508 144.20016818 187.67226573 138 169 C137.69449219 168.05471436 137.69449219 168.05471436 137.3828125 167.09033203 C129.12744221 142.31785128 111.71297408 122.66473953 88.6550293 110.69750977 C51.1640089 92.05049578 8.10913535 98.12041472 -23 126 Z " fill="#070607" transform="translate(240,18)"/>
<path d="M0 0 C1.52102323 0.14383922 3.04180897 0.29019014 4.5625 0.4375 C5.40941406 0.51871094 6.25632813 0.59992188 7.12890625 0.68359375 C9.1503514 0.90636526 11.16533044 1.19230823 13.171875 1.5234375 C18.02730834 2.12788941 22.79918516 2.19084158 27.6875 2.1875 C28.66195068 2.18814453 29.63640137 2.18878906 30.64038086 2.18945312 C36.78354416 2.14440701 42.63723359 1.74171182 48.66015625 0.4375 C51.15464531 -0.02891532 53.46810879 -0.0722108 56 0 C57.392879 24.41407351 47.85427907 48.62220846 31.875 67 C30.92885854 68.01154294 29.97615065 69.01738477 29 70 C16.96502265 64.64822049 9.42823056 47.32234538 4.8996582 35.62670898 C0.61281077 23.81136435 -0.47587228 12.42555408 0 0 Z " fill="#0F7049" transform="translate(186,215)"/>
<path d="M0 0 C0.08636719 0.8971875 0.17273438 1.794375 0.26171875 2.71875 C3.24823076 29.24116856 14.85556511 52.18610479 35 70 C44.29943116 77.41344959 54.69526665 83.23175555 66 87 C66.10957031 86.12859375 66.21914062 85.2571875 66.33203125 84.359375 C69.55657554 60.1359691 78.43765046 41.06331246 95 23 C95.99 23.99 96.98 24.98 98 26 C97.25556641 26.78310547 97.25556641 26.78310547 96.49609375 27.58203125 C91.20052591 33.31973379 86.89761856 39.23882494 83 46 C82.10087891 47.55654297 82.10087891 47.55654297 81.18359375 49.14453125 C69.71942093 70.41391451 67.08331022 96.25492319 72.96875 119.7421875 C78.18245195 136.21274593 85.73135384 150.67334606 98 163 C97.01 163.99 96.02 164.98 95 166 C84.69144169 155.22393337 77.78415848 143.6313875 72 130 C71.73276123 129.3822168 71.46552246 128.76443359 71.19018555 128.12792969 C68.99467928 122.73135215 68.07592059 117.38194214 67.3125 111.625 C67.11817383 110.30242187 67.11817383 110.30242187 66.91992188 108.953125 C66.0862516 102.93658399 65.84559523 97.06998636 66 91 C65.33355469 90.90976563 64.66710937 90.81953125 63.98046875 90.7265625 C60.15326658 89.79358792 56.80507808 88.14769171 53.3125 86.375 C52.24684814 85.83540649 52.24684814 85.83540649 51.15966797 85.28491211 C27.65887228 73.14986837 12.42010157 53.81737501 2 30 C1.65839844 29.236875 1.31679687 28.47375 0.96484375 27.6875 C-2.54136308 19.23031769 -3.30185403 10.05562099 -3 1 C-1 0 -1 0 0 0 Z " fill="#025A02" transform="translate(116,122)"/>
<path d="M0 0 C1.32 0.33 2.64 0.66 4 1 C-0.08970297 30.2471949 -11.7133334 56.00279877 -35.4777832 74.4621582 C-44.80905776 81.41108187 -54.69538102 87.01683666 -66 90 C-66 93.63 -66 97.26 -66 101 C-66.33 101 -66.66 101 -67 101 C-67 96.05 -67 91.1 -67 86 C-63.6278125 84.7315625 -63.6278125 84.7315625 -60.1875 83.4375 C-36.82057751 74.25573949 -18.9061609 55.78489925 -8.6875 33.0625 C-4.37849531 22.41531943 -1.79065149 11.332939 0 0 Z " fill="#0504B6" transform="translate(312,123)"/>
<path d="M0 0 C0.33 0 0.66 0 1 0 C1 3.63 1 7.26 1 11 C-17.86773098 15.20395067 -36.13226902 15.20395067 -55 11 C-55 9.68 -55 8.36 -55 7 C-53.52466797 7.32484375 -53.52466797 7.32484375 -52.01953125 7.65625 C-34.78779896 11.20922794 -18.11469477 11.06685816 -1 7 C-0.67 4.69 -0.34 2.38 0 0 Z " fill="#005730" transform="translate(241,204)"/>
</svg>
